<svg xmlns="http://www.w3.org/2000/svg" viewBox="0 0 1000 700">
  <!-- Background -->
  <rect width="1000" height="700" fill="#f8f9fa" />
  
  <!-- Title -->
  <text x="500" y="40" font-family="Arial" font-size="24" font-weight="bold" text-anchor="middle">MS-GESCAM: Multi-Stream Architecture for Gaze Estimation</text>
  
  <!-- Input Images -->
  <rect x="50" y="100" width="120" height="90" fill="#d1e7ff" stroke="#0066cc" stroke-width="2" rx="5" />
  <text x="110" y="145" font-family="Arial" font-size="14" text-anchor="middle">Scene Image</text>
  <text x="110" y="165" font-family="Arial" font-size="12" text-anchor="middle">[B, 3, 224, 224]</text>
  
  <rect x="50" y="300" width="120" height="90" fill="#d1e7ff" stroke="#0066cc" stroke-width="2" rx="5" />
  <text x="110" y="345" font-family="Arial" font-size="14" text-anchor="middle">Head Image</text>
  <text x="110" y="365" font-family="Arial" font-size="12" text-anchor="middle">[B, 3, 224, 224]</text>
  
  <rect x="50" y="500" width="120" height="90" fill="#d1e7ff" stroke="#0066cc" stroke-width="2" rx="5" />
  <text x="110" y="545" font-family="Arial" font-size="14" text-anchor="middle">Head Position</text>
  <text x="110" y="565" font-family="Arial" font-size="12" text-anchor="middle">[B, 1, 224, 224]</text>
  
  <rect x="50" y="620" width="120" height="60" fill="#d1e7ff" stroke="#0066cc" stroke-width="2" rx="5" opacity="0.7" />
  <text x="110" y="650" font-family="Arial" font-size="14" text-anchor="middle">Objects Mask</text>
  <text x="110" y="670" font-family="Arial" font-size="12" text-anchor="middle">[B, 11, 224, 224]</text>
  <text x="140" y="690" font-family="Arial" font-size="10" text-anchor="middle" font-style="italic">(Optional)</text>
  
  <!-- Scene Pathway -->
  <!-- Concat Scene and Head Position -->
  <rect x="200" y="120" width="30" height="60" fill="#c0ffc0" stroke="#00aa00" stroke-width="2" rx="5" />
  <text x="215" y="155" font-family="Arial" font-size="20" text-anchor="middle">⊕</text>
  
  <!-- Scene Backbone (ResNet18) -->
  <rect x="260" y="100" width="120" height="100" fill="#ffdddd" stroke="#cc0000" stroke-width="2" rx="5" />
  <text x="320" y="140" font-family="Arial" font-size="14" text-anchor="middle">Scene Backbone</text>
  <text x="320" y="160" font-family="Arial" font-size="14" text-anchor="middle">(ResNet18)</text>
  <text x="320" y="180" font-family="Arial" font-size="12" text-anchor="middle">[B, 512, 7, 7]</text>
  
  <!-- Head Pathway -->
  <!-- Head Backbone -->
  <rect x="260" y="295" width="120" height="100" fill="#ffdddd" stroke="#cc0000" stroke-width="2" rx="5" />
  <text x="320" y="335" font-family="Arial" font-size="14" text-anchor="middle">Head Backbone</text>
  <text x="320" y="355" font-family="Arial" font-size="14" text-anchor="middle">(ResNet18)</text>
  <text x="320" y="375" font-family="Arial" font-size="12" text-anchor="middle">[B, 512, 1, 1]</text>
  
  <!-- Head FC -->
  <rect x="410" y="315" width="100" height="60" fill="#e6ccff" stroke="#6600cc" stroke-width="2" rx="5" />
  <text x="460" y="345" font-family="Arial" font-size="14" text-anchor="middle">Head FC</text>
  <text x="460" y="365" font-family="Arial" font-size="12" text-anchor="middle">[B, 256]</text>
  
  <!-- Objects Mask Process (Optional) -->
  <rect x="260" y="620" width="120" height="60" fill="#ffdddd" stroke="#cc0000" stroke-width="2" rx="5" opacity="0.7" />
  <text x="320" y="650" font-family="Arial" font-size="14" text-anchor="middle">Objects Conv</text>
  <text x="320" y="670" font-family="Arial" font-size="12" text-anchor="middle">[B, 64, W, H]</text>
  
  <!-- Add objects features to scene -->
  <circle cx="420" y="200" r="25" fill="#c0ffc0" stroke="#00aa00" stroke-width="2" opacity="0.7" />
  <text x="420" y="205" font-family="Arial" font-size="20" text-anchor="middle">+</text>
  
  <!-- Attention Module -->
  <rect x="540" y="315" width="120" height="60" fill="#ffe6cc" stroke="#ff9900" stroke-width="2" rx="5" />
  <text x="600" y="345" font-family="Arial" font-size="14" text-anchor="middle">Soft Attention</text>
  <text x="600" y="365" font-family="Arial" font-size="12" text-anchor="middle">[B, 1, 7, 7]</text>
  
  <!-- Feature Modulation (Attention * Scene Features) -->
  <circle cx="500" y="150" r="25" fill="#ff99cc" stroke="#cc0066" stroke-width="2" />
  <text x="500" y="155" font-family="Arial" font-size="20" text-anchor="middle">⊗</text>
  
  <!-- Attended Scene Features -->
  <rect x="550" y="120" width="110" height="60" fill="#e6ccff" stroke="#6600cc" stroke-width="2" rx="5" />
  <text x="605" y="145" font-family="Arial" font-size="14" text-anchor="middle">Attended Scene</text>
  <text x="605" y="165" font-family="Arial" font-size="12" text-anchor="middle">[B, 512, 7, 7]</text>
  
  <!-- Head Feature Expansion -->
  <rect x="540" y="215" width="110" height="60" fill="#e6ccff" stroke="#6600cc" stroke-width="2" rx="5" />
  <text x="595" y="240" font-family="Arial" font-size="14" text-anchor="middle">Head Features</text>
  <text x="595" y="260" font-family="Arial" font-size="12" text-anchor="middle">[B, 256, 7, 7]</text>
  
  <!-- Feature Concatenation -->
  <circle cx="700" y="180" r="25" fill="#c0ffc0" stroke="#00aa00" stroke-width="2" />
  <text x="700" y="185" font-family="Arial" font-size="20" text-anchor="middle">⊕</text>
  
  <!-- Encoding Module -->
  <rect x="750" y="150" width="110" height="60" fill="#e6ccff" stroke="#6600cc" stroke-width="2" rx="5" />
  <text x="805" y="175" font-family="Arial" font-size="14" text-anchor="middle">Encoding</text>
  <text x="805" y="195" font-family="Arial" font-size="12" text-anchor="middle">[B, 256, 7, 7]</text>
  
  <!-- In/Out of Frame Branch -->
  <rect x="750" y="315" width="110" height="60" fill="#ffdddd" stroke="#cc0000" stroke-width="2" rx="5" />
  <text x="805" y="340" font-family="Arial" font-size="14" text-anchor="middle">In-Frame FC</text>
  <text x="805" y="360" font-family="Arial" font-size="12" text-anchor="middle">[B, 1]</text>
  
  <!-- Deconvolution Network -->
  <rect x="750" y="240" width="110" height="60" fill="#ffdddd" stroke="#cc0000" stroke-width="2" rx="5" />
  <text x="805" y="260" font-family="Arial" font-size="13" text-anchor="middle">Deconvolution</text>
  <text x="805" y="280" font-family="Arial" font-size="13" text-anchor="middle">Network</text>
  
  <!-- Output: Gaze Heatmap and In-Frame Prediction -->
  <rect x="900" y="240" width="100" height="60" fill="#d1e7ff" stroke="#0066cc" stroke-width="2" rx="5" />
  <text x="950" y="265" font-family="Arial" font-size="14" text-anchor="middle">Gaze Heatmap</text>
  <text x="950" y="285" font-family="Arial" font-size="12" text-anchor="middle">[B, 1, 64, 64]</text>
  
  <rect x="900" y="315" width="100" height="60" fill="#d1e7ff" stroke="#0066cc" stroke-width="2" rx="5" />
  <text x="950" y="340" font-family="Arial" font-size="14" text-anchor="middle">In/Out</text>
  <text x="950" y="360" font-family="Arial" font-size="14" text-anchor="middle">Prediction</text>

  <!-- Connection arrows -->
  <!-- Scene image to concat -->
  <line x1="170" y1="145" x2="200" y2="150" stroke="#000000" stroke-width="2" marker-end="url(#arrowhead)" />
  
  <!-- Head position to concat -->
  <line x1="100" y1="500" x2="160" y2="320" stroke="#000000" stroke-width="2" stroke-dasharray="5,5" />
  <line x1="160" y1="320" x2="200" y2="150" stroke="#000000" stroke-width="2" stroke-dasharray="5,5" marker-end="url(#arrowhead)" />
  
  <!-- Concat to scene backbone -->
  <line x1="230" y1="150" x2="260" y2="150" stroke="#000000" stroke-width="2" marker-end="url(#arrowhead)" />
  
  <!-- Head image to head backbone -->
  <line x1="170" y1="345" x2="260" y2="345" stroke="#000000" stroke-width="2" marker-end="url(#arrowhead)" />
  
  <!-- Head backbone to head FC -->
  <line x1="380" y1="345" x2="410" y2="345" stroke="#000000" stroke-width="2" marker-end="url(#arrowhead)" />
  
  <!-- Objects mask to objects conv -->
  <line x1="170" y1="650" x2="260" y2="650" stroke="#000000" stroke-width="2" stroke-dasharray="5,5" marker-end="url(#arrowhead)" />
  
  <!-- Objects conv to scene features addition -->
  <line x1="380" y1="650" x2="395" y2="650" stroke="#000000" stroke-width="2" stroke-dasharray="5,5" />
  <line x1="395" y1="650" x2="395" y2="300" stroke="#000000" stroke-width="2" stroke-dasharray="5,5" />
  <line x1="395" y1="300" x2="395" y2="200" stroke="#000000" stroke-width="2" stroke-dasharray="5,5" marker-end="url(#arrowhead)" />
  
  <!-- Scene backbone to object features addition -->
  <line x1="380" y1="150" x2="395" y2="150" stroke="#000000" stroke-width="2" />
  <line x1="395" y1="150" x2="395" y2="175" stroke="#000000" stroke-width="2" marker-end="url(#arrowhead)" />
  
  <!-- Enhanced scene features to modulation -->
  <line x1="445" y1="200" x2="475" y2="175" stroke="#000000" stroke-width="2" />
  <line x1="475" y1="175" x2="475" y2="150" stroke="#000000" stroke-width="2" marker-end="url(#arrowhead)" />
  
  <!-- Head FC to SoftAttention -->
  <line x1="510" y1="345" x2="540" y2="345" stroke="#000000" stroke-width="2" marker-end="url(#arrowhead)" />
  
  <!-- Attention to modulation -->
  <line x1="600" y1="315" x2="600" y2="250" stroke="#000000" stroke-width="2" />
  <line x1="600" y1="250" x2="525" y2="175" stroke="#000000" stroke-width="2" />
  <line x1="525" y1="175" x2="525" y2="150" stroke="#000000" stroke-width="2" marker-end="url(#arrowhead)" />
  
  <!-- Modulation to attended scene features -->
  <line x1="525" y1="150" x2="550" y2="150" stroke="#000000" stroke-width="2" marker-end="url(#arrowhead)" />
  
  <!-- Head FC to head features expansion -->
  <line x1="510" y1="345" x2="522" y2="345" stroke="#000000" stroke-width="2" />
  <line x1="522" y1="345" x2="522" y2="245" stroke="#000000" stroke-width="2" marker-end="url(#arrowhead)" />
  
  <!-- Attended scene and head features to concat -->
  <line x1="660" y1="150" x2="680" y2="165" stroke="#000000" stroke-width="2" marker-end="url(#arrowhead)" />
  <line x1="650" y1="215" x2="680" y2="195" stroke="#000000" stroke-width="2" marker-end="url(#arrowhead)" />
  
  <!-- Concat to encoding -->
  <line x1="725" y1="180" x2="750" y2="180" stroke="#000000" stroke-width="2" marker-end="url(#arrowhead)" />
  
  <!-- Encoding to deconvolution -->
  <line x1="805" y1="210" x2="805" y2="240" stroke="#000000" stroke-width="2" marker-end="url(#arrowhead)" />
  
  <!-- Deconv to heatmap output -->
  <line x1="860" y1="270" x2="900" y2="270" stroke="#000000" stroke-width="2" marker-end="url(#arrowhead)" />
  
  <!-- Head FC to in-frame branch -->
  <line x1="510" y1="345" x2="750" y2="345" stroke="#000000" stroke-width="2" marker-end="url(#arrowhead)" />
  
  <!-- In-frame to output -->
  <line x1="860" y1="345" x2="900" y2="345" stroke="#000000" stroke-width="2" marker-end="url(#arrowhead)" />
  
  <!-- Arrow marker definition -->
  <defs>
    <marker id="arrowhead" markerWidth="10" markerHeight="7" refX="10" refY="3.5" orient="auto">
      <polygon points="0 0, 10 3.5, 0 7" fill="#000000" />
    </marker>
  </defs>
  
  <!-- Legend -->
  <rect x="760" y="410" width="20" height="20" fill="#d1e7ff" stroke="#0066cc" stroke-width="2" />
  <text x="790" y="425" font-family="Arial" font-size="12">Input/Output Data</text>
  
  <rect x="760" y="440" width="20" height="20" fill="#ffdddd" stroke="#cc0000" stroke-width="2" />
  <text x="790" y="455" font-family="Arial" font-size="12">Networks/Processing Blocks</text>
  
  <rect x="760" y="470" width="20" height="20" fill="#e6ccff" stroke="#6600cc" stroke-width="2" />
  <text x="790" y="485" font-family="Arial" font-size="12">Feature Transformations</text>
  
  <rect x="760" y="500" width="20" height="20" fill="#ffe6cc" stroke="#ff9900" stroke-width="2" />
  <text x="790" y="515" font-family="Arial" font-size="12">Attention Components</text>
  
  <circle cx="770" y="535" r="10" fill="#c0ffc0" stroke="#00aa00" stroke-width="2" />
  <text x="790" y="540" font-family="Arial" font-size="12">Addition/Concatenation</text>
  
  <circle cx="770" y="565" r="10" fill="#ff99cc" stroke="#cc0066" stroke-width="2" />
  <text x="790" y="570" font-family="Arial" font-size="12">Element-wise Multiplication</text>
  
  <line x1="760" y1="590" x2="780" y2="590" stroke="#000000" stroke-width="2" stroke-dasharray="5,5" />
  <text x="790" y="595" font-family="Arial" font-size="12">Optional Components</text>
  
  <!-- Loss Function Box -->
  <rect x="740" y="610" width="240" height="70" fill="#f0f0f0" stroke="#666666" stroke-width="2" rx="5" />
  <text x="860" y="630" font-family="Arial" font-size="14" font-weight="bold" text-anchor="middle">Combined Loss</text>
  <text x="860" y="650" font-family="Arial" font-size="12" text-anchor="middle">L = λ₁·L_heatmap + λ₂·L_in_frame + λ₃·L_angular</text>
  <text x="860" y="670" font-family="Arial" font-size="12" text-anchor="middle">(MSE + BCE + Angular Loss)</text>
  
  <!-- Implementation Details -->
  <rect x="50" y="410" width="330" height="70" fill="#f0f0f0" stroke="#666666" stroke-width="2" rx="5" />
  <text x="215" y="430" font-family="Arial" font-size="14" font-weight="bold" text-anchor="middle">Implementation Details</text>
  <text x="215" y="450" font-family="Arial" font-size="12" text-anchor="middle">Backbone: ResNet18 (pretrained)</text>
  <text x="215" y="470" font-family="Arial" font-size="12" text-anchor="middle">Feature dimensions: 512 → 256</text>
</svg>
